<?xml version="1.0" standalone="no"?>
<!DOCTYPE svg PUBLIC "-//W3C//DTD SVG 1.1//EN" "http://www.w3.org/Graphics/SVG/1.1/DTD/svg11.dtd" >
<svg xmlns="http://www.w3.org/2000/svg">
<metadata>
<json>
<![CDATA[
{
	"fontFamily": "Mobius",
	"majorVersion": 1,
	"minorVersion": 0,
	"description": "Mobius - ISC Icons\nFont generated by IcoMoon.",
	"copyright": "",
	"designer": "",
	"fontURL": "",
	"version": "Version 1.0",
	"fontId": "Mobius",
	"psName": "Mobius",
	"subFamily": "Regular",
	"fullName": "Mobius"
}
]]>
</json>
</metadata>
<defs>
<font id="Mobius" horiz-adv-x="512">
<font-face units-per-em="512" ascent="480" descent="-32" />
<missing-glyph horiz-adv-x="512" />
<glyph unicode="&#x20;" horiz-adv-x="256" d="" />
<glyph unicode="&#xe000;" glyph-name="error" data-tags="error" d="M277 192.333v128h-42v-128h42zM277 106.333v43h-42v-43h42zM256 426.333q88 0 150.5-62.5t62.5-150.5-62.5-150.5-150.5-62.5-150.5 62.5-62.5 150.5 62.5 150.5 150.5 62.5z" />
<glyph unicode="&#xe001;" glyph-name="error-wire" data-tags="error_outline" d="M256 42.333q70 0 120.5 50.5t50.5 120.5-50.5 120.5-120.5 50.5-120.5-50.5-50.5-120.5 50.5-120.5 120.5-50.5zM256 426.333q88 0 150.5-62.5t62.5-150.5-62.5-150.5-150.5-62.5-150.5 62.5-62.5 150.5 62.5 150.5 150.5 62.5zM235 320.333h42v-128h-42v128zM235 149.333h42v-43h-42v43z" />
<glyph unicode="&#xe002;" glyph-name="warning" data-tags="warning" d="M277 170.333v86h-42v-86h42zM277 85.333v43h-42v-43h42zM21 21.333l235 405 235-405h-470z" />
<glyph unicode="&#xe005;" glyph-name="job-alternate" data-tags="av_timer" d="M128 213.333q0 9 6 15t15 6 15.5-6 6.5-15-6.5-15-15.5-6-15 6-6 15zM384 213.333q0-9-6-15t-15-6-15.5 6-6.5 15 6.5 15 15.5 6 15-6 6-15zM235 405.333h21q80 0 136-56t56-136-56-136-136-56-136 56-56 136q0 96 77 153v1l145-145-30-30-116 115q-33-41-33-94 0-62 43.5-105.5t105.5-43.5 105.5 43.5 43.5 105.5q0 56-37 98t-91 50v-41h-42v85zM235 106.333q0 9 6 15.5t15 6.5 15-6.5 6-15.5-6-15-15-6-15 6-6 15z" />
<glyph unicode="&#xe007;" glyph-name="analytics" data-tags="equalizer" d="M341 277.333h86v-235h-86v235zM85 42.333v171h86v-171h-86zM213 42.333v342h86v-342h-86z" />
<glyph unicode="&#xe00e;" glyph-name="refresh" data-tags="loop" d="M256 85.333v64l85-85-85-86v64q-70 0-120.5 50.5t-50.5 120.5q0 50 27 91l31-31q-15-27-15-60 0-53 37.5-90.5t90.5-37.5zM256 384.333q70 0 120.5-50.5t50.5-120.5q0-50-27-91l-31 31q15 27 15 60 0 53-37.5 90.5t-90.5 37.5v-64l-85 85 85 86v-64z" />
<glyph unicode="&#xe017;" glyph-name="cancel" data-tags="not_interested" d="M391 108.333q36 45 36 105 0 70-50.5 120.5t-120.5 50.5q-60 0-105-36zM256 42.333q60 0 105 36l-240 240q-36-45-36-105 0-70 50.5-120.5t120.5-50.5zM256 426.333q88 0 150.5-62.5t62.5-150.5-62.5-150.5-150.5-62.5-150.5 62.5-62.5 150.5 62.5 150.5 150.5 62.5z" />
<glyph unicode="&#xe01e;" glyph-name="add-list" data-tags="playlist_add" d="M43 128.333v42h170v-42h-170zM384 170.333h85v-42h-85v-86h-43v86h-85v42h85v86h43v-86zM299 341.333v-43h-256v43h256zM299 256.333v-43h-256v43h256z" />
<glyph unicode="&#xe041;" glyph-name="diag-right-arrow" data-tags="call_made" d="M192 362.333h213v-213h-42v141l-248-248-30 30 248 248h-141v42z" />
<glyph unicode="&#xe044;" glyph-name="diag-left-arrow" data-tags="call_received" d="M427 354.333l-248-248h141v-42h-213v213h42v-141l248 248z" />
<glyph unicode="&#xe06b;" glyph-name="plus-solid" data-tags="add_circle" d="M363 192.333v42h-86v86h-42v-86h-86v-42h86v-86h42v86h86zM256 426.333q88 0 150.5-62.5t62.5-150.5-62.5-150.5-150.5-62.5-150.5 62.5-62.5 150.5 62.5 150.5 150.5 62.5z" />
<glyph unicode="&#xe06c;" glyph-name="plus-wire" data-tags="add_circle_outline" d="M256 42.333q70 0 120.5 50.5t50.5 120.5-50.5 120.5-120.5 50.5-120.5-50.5-50.5-120.5 50.5-120.5 120.5-50.5zM256 426.333q88 0 150.5-62.5t62.5-150.5-62.5-150.5-150.5-62.5-150.5 62.5-62.5 150.5 62.5 150.5 150.5 62.5zM277 320.333v-86h86v-42h-86v-86h-42v86h-86v42h86v86h42z" />
<glyph unicode="&#xe074;" glyph-name="edit" data-tags="create" d="M442 319.333l-39-39-80 80 39 39q6 6 15 6t15-6l50-50q6-6 6-15t-6-15zM64 101.333l236 236 80-80-236-236h-80v80z" />
<glyph unicode="&#xe078;" glyph-name="global" data-tags="globe" d="M256 448q6 0 9-0.167 31-1.166 60.25-10.25t54.084-24.416 45.584-36.916 35.166-46.916 22.5-55.084 8.084-60.916-8.084-60.916-22.5-55.084-35.166-46.916-45.584-36.916-54.084-24.416-60.25-10.25q-3-0.166-9-0.166t-9 0.166q-31 1.166-60.25 10.25t-54.084 24.416-45.584 36.916-35.166 46.916-22.5 55.084-8.084 60.916 8.084 60.916 22.5 55.084 35.166 46.916 45.584 36.917 54.084 24.416 60.25 10.25q3 0.166 9 0.166zM150.167 192h-85q6.666-59.5 45.834-104.5t96.334-60q-21.666 32.834-37.75 74.416t-19.416 90.084zM319.166 192h-126.334q1.667-21.334 6.917-42.666t11.75-37.75 15-32.416 15.333-26.334 14.166-19.834q7.334 9.5 14.166 19.916t15.334 26.416 15 32.416 11.75 37.666 6.916 42.584zM207.333 399.167q-57.167-15-96.334-60t-45.834-104.5h85q5.833 87 57.166 164.5zM446.834 192h-84.834q-6.166-87.166-57.334-164.5 57.166 15 96.334 60t45.834 104.5zM256 393.667q-7.333-9.5-14.084-19.916t-15.334-26.416-15.084-32.417-11.75-37.666-6.917-42.584h126.333q-1.666 21.334-6.916 42.667t-11.75 37.75-15 32.416-15.334 26.334-14.166 19.833zM304.666 399.167q51.166-77.333 57.334-164.5h84.834q-6.666 59.5-45.834 104.5t-96.334 60z" />
<glyph unicode="&#xe079;" glyph-name="website" data-tags="box" d="M21.334 362.667l234.666 106.666 234.667-106.666v-298.666l-234.667-106.666-234.667 106.666v298.666zM234.667 242.333l-170.667 77.5v-228.334l170.667-77.666v228.5zM448 91.5v228.334l-170.667-77.5v-228.5zM413.334 351l-157.334 71.5-157.333-71.5 157.333-71.5z" />
<glyph unicode="&#xe080;" glyph-name="minus-solid" data-tags="remove_circle" d="M363 192.333v42h-214v-42h214zM256 426.333q88 0 150.5-62.5t62.5-150.5-62.5-150.5-150.5-62.5-150.5 62.5-62.5 150.5 62.5 150.5 150.5 62.5z" />
<glyph unicode="&#xe081;" glyph-name="minus-wire" data-tags="remove_circle_outline" d="M256 42.333q70 0 120.5 50.5t50.5 120.5-50.5 120.5-120.5 50.5-120.5-50.5-50.5-120.5 50.5-120.5 120.5-50.5zM256 426.333q88 0 150.5-62.5t62.5-150.5-62.5-150.5-150.5-62.5-150.5 62.5-62.5 150.5 62.5 150.5 150.5 62.5zM149 234.333h214v-42h-214v42z" />
<glyph unicode="&#xe084;" glyph-name="alert" data-tags="report" d="M277 192.333v128h-42v-128h42zM256 100.333q11 0 19.5 8.5t8.5 19.5-8.5 19-19.5 8-19.5-8-8.5-19 8.5-19.5 19.5-8.5zM336 405.333l112-112v-160l-112-112h-160l-112 112v160l112 112h160z" />
<glyph unicode="&#xe085;" glyph-name="save" data-tags="save" d="M320 277.333v85h-213v-85h213zM256 64.333q26 0 45 19t19 45-19 45-45 19-45-19-19-45 19-45 45-19zM363 405.333l85-85v-256q0-17-13-30t-30-13h-298q-18 0-30.5 13t-12.5 30v298q0 17 12.5 30t30.5 13h256z" />
<glyph unicode="&#xe0a2;" glyph-name="dvr" data-tags="dvr" d="M149 213.333v-43h-42v43h42zM149 298.333v-42h-42v42h42zM405 213.333v-43h-234v43h234zM405 298.333v-42h-234v42h234zM448 106.333v256h-384v-256h384zM448 405.333q17 0 30-13t13-30l-1-256q0-17-12.5-29.5t-29.5-12.5h-107v-43h-170v43h-107q-17 0-30 12.5t-13 29.5v256q0 17 13 30t30 13h384z" />
<glyph unicode="&#xe0e7;" glyph-name="doc" data-tags="insert_drive_file" d="M277 277.333h118l-118 117v-117zM128 426.333h171l128-128v-256q0-17-13-29.5t-30-12.5h-256q-17 0-30 12.5t-13 29.5l1 342q0 17 12.5 29.5t29.5 12.5z" />
<glyph unicode="&#xe0ff;" glyph-name="import" data-tags="file_download" d="M107 85.333h298v-43h-298v43zM405 277.333l-149-149-149 149h85v128h128v-128h85z" />
<glyph unicode="&#xe100;" glyph-name="export" data-tags="file_upload" d="M107 85.333h298v-43h-298v43zM192 128.333v128h-85l149 149 149-149h-85v-128h-128z" />
<glyph unicode="&#xe127;" glyph-name="device-phone" data-tags="smartphone" d="M363 64.333v298h-214v-298h214zM363 447.333q17 0 29.5-12.5t12.5-29.5v-384q0-17-12.5-30t-29.5-13h-214q-17 0-29.5 13t-12.5 30v384q0 17 12.5 30t29.5 13z" />
<glyph unicode="&#xe12a;" glyph-name="device-tablet" data-tags="tablet" d="M405 85.333v256h-298v-256h298zM448 384.333q17 0 30-13t13-30l-1-256q0-17-12.5-30t-29.5-13h-384q-17 0-30 13t-13 30v256q0 17 13 30t30 13h384z" />
<glyph unicode="&#xe130;" glyph-name="flux-capacitor" data-tags="device_hub" d="M363 128.333h85v-107h-107v65l-85 90-85-90v-65h-107v107h85l86 85v68q-19 7-31 23t-12 37q0 26 19 45t45 19 45-19 19-45q0-21-12-37t-31-23v-68z" />
<glyph unicode="&#xe133;" glyph-name="circle-dot" data-tags="adjust" d="M320 213.333q0-26-19-45t-45-19-45 19-19 45 19 45 45 19 45-19 19-45zM256 42.333q70 0 120.5 50.5t50.5 120.5-50.5 120.5-120.5 50.5-120.5-50.5-50.5-120.5 50.5-120.5 120.5-50.5zM256 426.333q88 0 150.5-62.5t62.5-150.5-62.5-150.5-150.5-62.5-150.5 62.5-62.5 150.5 62.5 150.5 150.5 62.5z" />
<glyph unicode="&#xe135;" glyph-name="flag" data-tags="assistant_photo" d="M307 341.333h120v-213h-150l-8 42h-120v-149h-42v363h192z" />
<glyph unicode="&#xe176;" glyph-name="dash-dot" data-tags="filter_tilt_shift" d="M121 48.333l30 30q37-28 84-34v-43q-63 6-114 47zM277 44.333q47 6 83 34l31-30q-51-41-114-47v43zM391 108.333q28 38 34 83h43q-6-62-47-113zM320 213.333q0-26-19-45t-45-19-45 19-19 45 19 45 45 19 45-19 19-45zM87 192.333q6-47 34-83l-30-31q-41 51-47 114h43zM121 318.333q-28-37-34-84h-43q6 63 47 114zM425 234.333q-6 47-34 84l30 30q41-51 47-114h-43zM391 378.333l-30-30q-37 28-84 34v43q63-6 114-47zM235 382.333q-47-6-84-34l-30 30q51 41 114 47v-43z" />
<glyph unicode="&#xe19a;" glyph-name="chevron-left" data-tags="navigate_before" d="M329 311.333l-98-98 98-98-30-30-128 128 128 128z" />
<glyph unicode="&#xe19b;" glyph-name="chevron-right" data-tags="navigate_next" d="M213 341.333l128-128-128-128-30 30 98 98-98 98z" />
<glyph unicode="&#xe1a8;" glyph-name="visible" data-tags="remove_red_eye" d="M256 277.333q26 0 45-19t19-45-19-45-45-19-45 19-19 45 19 45 45 19zM256 106.333q44 0 75.5 31.5t31.5 75.5-31.5 75.5-75.5 31.5-75.5-31.5-31.5-75.5 31.5-75.5 75.5-31.5zM256 373.333q79 0 143-44t92-116q-28-72-92-116t-143-44-143 44-92 116q28 72 92 116t143 44z" />
<glyph unicode="&#xe1d3;" glyph-name="layer" data-tags="layers" d="M256 128.333q-9 7-81.5 63.5t-110.5 85.5l192 149 192-149q-38-29-110-85t-82-64zM256 73.333l157 123 35-27-192-149-192 149 35 27z" />
<glyph unicode="&#xe1df;" glyph-name="cart" data-tags="local_grocery_store" d="M363 85.333q17 0 29.5-13t12.5-30-12.5-29.5-29.5-12.5-30 12.5-13 29.5 13 30 30 13zM21 426.333h70l20-42h316q9 0 15-6.5t6-15.5q0-5-3-10l-76-138q-12-22-37-22h-159l-19-35-1-3q0-5 5-5h247v-43h-256q-17 0-29.5 13t-12.5 30q0 10 5 20l29 53-77 162h-43v42zM149 85.333q17 0 30-13t13-30-13-29.5-30-12.5-29.5 12.5-12.5 29.5 12.5 30 29.5 13z" />
<glyph unicode="&#xe201;" glyph-name="sort-arrow-down" data-tags="arrow_drop_down" d="M149 256.333h214l-107-107z" />
<glyph unicode="&#xe202;" glyph-name="arrow-drop-down_circle" data-tags="arrow_drop_down_circle" d="M256 170.333l85 86h-170zM256 426.333q88 0 150.5-62.5t62.5-150.5-62.5-150.5-150.5-62.5-150.5 62.5-62.5 150.5 62.5 150.5 150.5 62.5z" />
<glyph unicode="&#xe203;" glyph-name="sort-arrow-up" data-tags="arrow_drop_up" d="M149 170.333l107 107 107-107h-214z" />
<glyph unicode="&#xe206;" glyph-name="check" data-tags="check" d="M192 124.333l226 226 30-30-256-256-119 119 30 30z" />
<glyph unicode="&#xe209;" glyph-name="close" data-tags="close" d="M405 332.333l-119-119 119-119-30-30-119 119-119-119-30 30 119 119-119 119 30 30 119-119 119 119z" />
<glyph unicode="&#xe20a;" glyph-name="expand-less" data-tags="expand_less" d="M256 298.333l128-128-30-30-98 98-98-98-30 30z" />
<glyph unicode="&#xe20b;" glyph-name="expand-more" data-tags="expand_more" d="M354 286.333l30-30-128-128-128 128 30 30 98-98z" />
<glyph unicode="&#xe20c;" glyph-name="expand" data-tags="fullscreen" d="M299 362.333h106v-106h-42v64h-64v42zM363 106.333v64h42v-106h-106v42h64zM107 256.333v106h106v-42h-64v-64h-42zM149 170.333v-64h64v-42h-106v106h42z" />
<glyph unicode="&#xe20d;" glyph-name="collapse" data-tags="fullscreen_exit" d="M341 298.333h64v-42h-106v106h42v-64zM299 64.333v106h106v-42h-64v-64h-42zM171 298.333v64h42v-106h-106v42h64zM107 128.333v42h106v-106h-42v64h-64z" />
<glyph unicode="&#xe20e;" glyph-name="menu" data-tags="menu" d="M64 341.333h384v-43h-384v43zM64 192.333v42h384v-42h-384zM64 85.333v43h384v-43h-384z" />
<glyph unicode="&#xe20f;" glyph-name="more-horizontal" data-tags="keyboard_control" d="M256 256.333q17 0 30-13t13-30-13-30-30-13-30 13-13 30 13 30 30 13zM384 256.333q17 0 30-13t13-30-13-30-30-13-30 13-13 30 13 30 30 13zM128 256.333q17 0 30-13t13-30-13-30-30-13-30 13-13 30 13 30 30 13z" />
<glyph unicode="&#xe210;" glyph-name="more-vertical" data-tags="more_vert" d="M256 128.333q17 0 30-13t13-30-13-30-30-13-30 13-13 30 13 30 30 13zM256 256.333q17 0 30-13t13-30-13-30-30-13-30 13-13 30 13 30 30 13zM256 298.333q-17 0-30 13t-13 30 13 30 30 13 30-13 13-30-13-30-30-13z" />
<glyph unicode="&#xe233;" glyph-name="translation-lock" data-tags="vpn_lock" d="M213 22.333v42q-17 0-29.5 12.5t-12.5 29.5v22l-103 102q-4-16-4-38 0-65 43-113.5t106-56.5zM404 213.333h43q1-7 1-21 0-89-62.5-151.5t-150.5-62.5q-89 0-151.5 62.5t-62.5 151.5q0 88 62.5 150.5t151.5 62.5q31 0 64-10v-54q0-17-13-30t-30-13h-43v-42q0-9-6-15.5t-15-6.5h-43v-42h128q9 0 15.5-6.5t6.5-15.5v-64h21q31 0 41-29 44 47 44 115 0 14-1 21zM452 384.333v10q0 15-10.5 26t-25.5 11-25.5-11-10.5-26v-10h72zM469 384.333q9 0 15.5-6.5t6.5-15.5v-85q0-9-6.5-15t-15.5-6h-106q-9 0-15.5 6t-6.5 15v85q0 9 6.5 15.5t15.5 6.5v10q0 22 15.5 38t37.5 16 37.5-16 15.5-38v-10z" />
<glyph unicode="&#xe24a;" glyph-name="notifications" data-tags="notifications" d="M384 128.333l43-43v-21h-363v21l43 43v117q0 48 30 86t76 49v14q0 13 9.5 22.5t22.5 9.5 22.5-9.5 9.5-22.5v-14q46-11 76.5-49t30.5-86v-117zM245 0.333q-17 0-29.5 12.5t-12.5 29.5h85q0-17-13-29.5t-30-12.5z" />
<glyph unicode="&#xe24b;" glyph-name="notifications-wire" data-tags="notifications_none" d="M341 106.333v139q0 40-28 68t-68 28-68-28-28-68v-139h192zM384 128.333l43-43v-21h-363v21l43 43v117q0 48 30 86t76 49v14q0 13 9.5 22.5t22.5 9.5 22.5-9.5 9.5-22.5v-14q46-11 76.5-49t30.5-86v-117zM245 0.333q-17 0-29.5 12.5t-12.5 29.5h85q0-17-13-29.5t-30-12.5z" />
<glyph unicode="&#xe251;" glyph-name="roles" data-tags="people" d="M341 192.333q28 0 61-8t61-26 28-41v-53h-128v53q0 44-42 74 7 1 20 1zM171 192.333q28 0 61-8t60.5-26 27.5-41v-53h-299v53q0 23 28 41t61 26 61 8zM171 234.333q-26 0-45 19t-19 45 19 45 45 19 44.5-19 18.5-45-18.5-45-44.5-19zM341 234.333q-26 0-45 19t-19 45 19 45 45 19 45-19 19-45-19-45-45-19z" />
<glyph unicode="&#xe253;" glyph-name="user" data-tags="person" d="M256 170.333q54 0 112.5-23.5t58.5-61.5v-43h-342v43q0 38 58.5 61.5t112.5 23.5zM256 213.333q-35 0-60 25t-25 60 25 60.5 60 25.5 60-25.5 25-60.5-25-60-60-25z" />
<glyph unicode="&#xe254;" glyph-name="user-add" data-tags="person_add" d="M320 170.333q54 0 112.5-23.5t58.5-61.5v-43h-342v43q0 38 58.5 61.5t112.5 23.5zM128 256.333h64v-43h-64v-64h-43v64h-64v43h64v64h43v-64zM320 213.333q-35 0-60 25t-25 60 25 60.5 60 25.5 60-25.5 25-60.5-25-60-60-25z" />
<glyph unicode="&#xe258;" glyph-name="translate" data-tags="public" d="M382 98.333q45 48 45 115 0 53-29.5 96t-77.5 62v-9q0-17-13-29.5t-30-12.5h-42v-43q0-9-6.5-15t-15.5-6h-42v-43h128q9 0 15-6t6-15v-64h21q30 0 41-30zM235 44.333v41q-17 0-30 13t-13 30v21l-102 102q-5-20-5-38 0-65 43.5-113t106.5-56zM256 426.333q88 0 150.5-62.5t62.5-150.5-62.5-150.5-150.5-62.5-150.5 62.5-62.5 150.5 62.5 150.5 150.5 62.5z" />
<glyph unicode="&#xe25c;" glyph-name="checkbox-solid" data-tags="check_box" d="M213 106.333l192 192-30 31-162-162-76 76-30-30zM405 405.333q18 0 30.5-13t12.5-30v-298q0-17-12.5-30t-30.5-13h-298q-18 0-30.5 13t-12.5 30v298q0 17 12.5 30t30.5 13h298z" />
<glyph unicode="&#xe25d;" glyph-name="checkbox-empty" data-tags="check_box_outline_blank" d="M405 405.333q17 0 30-13t13-30v-298q0-17-13-30t-30-13h-298q-17 0-30 13t-13 30v298q0 17 13 30t30 13h298zM405 362.333h-298v-298h298v298z" />
<glyph unicode="&#xe260;" glyph-name="favorite" data-tags="star" d="M256 101.333l-132-80 35 150-116 101 153 13 60 141 60-141 153-13-116-101 35-150z" />
<glyph unicode="&#xe27e;" glyph-name="jobs" data-tags="build" d="M28 64.333q-7-4-6.5-13.5t8.5-16.5l49-49q15-15 30 0l194 194q36-15 76.5-6.5t70.5 38.5q32 32 40 76t-12 82l-94-92-64 64 92 92q-38 18-82 11t-76-39q-30-30-38.5-70.5t6.5-76.5z" />
<glyph unicode="&#xe281;" glyph-name="check-circle" data-tags="check_circle" d="M213 106.333l192 192-30 31-162-162-76 76-30-30zM256 426.333q88 0 150.5-62.5t62.5-150.5-62.5-150.5-150.5-62.5-150.5 62.5-62.5 150.5 62.5 150.5 150.5 62.5z" />
<glyph unicode="&#xe286;" glyph-name="dashboard" data-tags="dashboard" d="M277 405.333h171v-128h-171v128zM277 21.333v213h171v-213h-171zM64 21.333v128h171v-128h-171zM64 192.333v213h171v-213h-171z" />
<glyph unicode="&#xe287;" glyph-name="delete" data-tags="delete" d="M405 384.333v-43h-298v43h74l22 21h106l22-21h74zM128 64.333v256h256v-256q0-17-13-30t-30-13h-170q-17 0-30 13t-13 30z" />
<glyph unicode="&#xe28a;" glyph-name="done" data-tags="done" d="M192 123.333l226 227 30-30-256-256-119 119 29 30z" />
<glyph unicode="&#xe28b;" glyph-name="done-all" data-tags="done_all" d="M9 183.333l30 30 119-119-30-30zM474 350.333l31-30-256-256-120 119 31 30 89-89zM384 320.333l-135-136-30 30 135 136z" />
<glyph unicode="&#xe299;" glyph-name="star" data-tags="grade" d="M256 101.333l-132-80 35 150-116 101 153 13 60 141 60-141 153-13-116-101 35-150z" />
<glyph unicode="&#xe29b;" glyph-name="help" data-tags="help" d="M321 229.333q20 20 20 48 0 35-25 60t-60 25-60-25-25-60h42q0 17 13 30t30 13 30-13 13-30-13-30l-26-27q-25-27-25-60v-11h42q0 33 25 60zM277 64.333v42h-42v-42h42zM256 426.333q88 0 150.5-62.5t62.5-150.5-62.5-150.5-150.5-62.5-150.5 62.5-62.5 150.5 62.5 150.5 150.5 62.5z" />
<glyph unicode="&#xe29c;" glyph-name="highlight-remove" data-tags="highlight_remove" d="M256 42.333q70 0 120.5 50.5t50.5 120.5-50.5 120.5-120.5 50.5-120.5-50.5-50.5-120.5 50.5-120.5 120.5-50.5zM256 426.333q88 0 150.5-62.5t62.5-150.5-62.5-150.5-150.5-62.5-150.5 62.5-62.5 150.5 62.5 150.5 150.5 62.5zM311 298.333l30-30-55-55 55-55-30-30-55 55-55-55-30 30 55 55-55 55 30 30 55-55z" />
<glyph unicode="&#xe29e;" glyph-name="home" data-tags="home" d="M213 42.333h-106v171h-64l213 192 213-192h-64v-171h-106v128h-86v-128z" />
<glyph unicode="&#xe2a2;" glyph-name="info" data-tags="info" d="M277 277.333v43h-42v-43h42zM277 106.333v128h-42v-128h42zM256 426.333q88 0 150.5-62.5t62.5-150.5-62.5-150.5-150.5-62.5-150.5 62.5-62.5 150.5 62.5 150.5 150.5 62.5z" />
<glyph unicode="&#xe2a3;" glyph-name="info-wire" data-tags="info_outline" d="M235 277.333v43h42v-43h-42zM256 42.333q70 0 120.5 50.5t50.5 120.5-50.5 120.5-120.5 50.5-120.5-50.5-50.5-120.5 50.5-120.5 120.5-50.5zM256 426.333q88 0 150.5-62.5t62.5-150.5-62.5-150.5-150.5-62.5-150.5 62.5-62.5 150.5 62.5 150.5 150.5 62.5zM235 106.333v128h42v-128h-42z" />
<glyph unicode="&#xe2a4;" glyph-name="input" data-tags="input" d="M235 128.333v64h-214v42h214v64l85-85zM448 405.333q17 0 30-12.5t13-30.5v-299q0-17-13-29.5t-30-12.5h-384q-17 0-30 12.5t-13 29.5v86h43v-86h384v300h-384v-86h-43v85q0 17 13 30t30 13h384z" />
<glyph unicode="&#xe2a9;" glyph-name="launch" data-tags="launch" d="M299 405.333h149v-149h-43v76l-209-209-30 30 209 209h-76v43zM405 64.333v149h43v-149q0-17-13-30t-30-13h-298q-18 0-30.5 13t-12.5 30v298q0 17 12.5 30t30.5 13h149v-43h-149v-298h298z" />
<glyph unicode="&#xe2b0;" glyph-name="note-add" data-tags="note_add" d="M277 277.333h118l-118 117v-117zM341 128.333v42h-64v64h-42v-64h-64v-42h64v-64h42v64h64zM299 426.333l128-128v-256q0-17-13-29.5t-30-12.5h-256q-17 0-30 12.5t-13 29.5l1 342q0 17 12.5 29.5t29.5 12.5h171z" />
<glyph unicode="&#xe2b1;" glyph-name="add-document" data-tags="note_add" d="M277 277.333h118l-118 117v-117zM341 128.333v42h-64v64h-42v-64h-64v-42h64v-64h42v64h64zM299 426.333l128-128v-256q0-17-13-29.5t-30-12.5h-256q-17 0-30 12.5t-13 29.5l1 342q0 17 12.5 29.5t29.5 12.5h171z" />
<glyph unicode="&#xe2bb;" glyph-name="library" data-tags="perm_media" d="M149 149.333h299l-75 96-53-64-75 96zM469 384.333q17 0 30-13t13-30v-213q0-17-13-30t-30-13h-341q-17 0-30 13t-13 30l1 256q0 17 12.5 29.5t29.5 12.5h128l43-42h170zM43 341.333v-299h384v-42h-384q-17 0-30 12.5t-13 29.5v299h43z" />
<glyph unicode="&#xe2c2;" glyph-name="schedule" data-tags="query_builder" d="M267 320.333v-112l96-57-16-27-112 68v128h32zM256 42.333q70 0 120.5 50.5t50.5 120.5-50.5 120.5-120.5 50.5-120.5-50.5-50.5-120.5 50.5-120.5 120.5-50.5zM256 426.333q88 0 150.5-62.5t62.5-150.5-62.5-150.5-150.5-62.5-150.5 62.5-62.5 150.5 62.5 150.5 150.5 62.5z" />
<glyph unicode="&#xe2c6;" glyph-name="report-problem" data-tags="report_problem" d="M277 170.333v86h-42v-86h42zM277 85.333v43h-42v-43h42zM21 21.333l235 405 235-405h-470z" />
<glyph unicode="&#xe2c7;" glyph-name="history" data-tags="restore" d="M256 298.333h32v-90l75-45-16-26-91 55v106zM277 405.333q79 0 135.5-56t56.5-136-56.5-136-135.5-56-135 56l30 31q44-44 105-44 62 0 106 43.5t44 105.5-44 105.5-106 43.5-105.5-43.5-43.5-105.5h64l-86-86-2 3-83 83h64q0 80 56.5 136t135.5 56z" />
<glyph unicode="&#xe2ca;" glyph-name="search" data-tags="search" d="M203 170.333q40 0 68 28t28 68-28 68-68 28-68-28-28-68 28-68 68-28zM331 170.333l106-106-32-32-106 106v17l-6 6q-38-33-90-33-58 0-98.5 40t-40.5 98 40.5 98.5 98.5 40.5 98-40.5 40-98.5q0-52-33-90l6-6h17z" />
<glyph unicode="&#xe2cb;" glyph-name="settings" data-tags="settings" d="M256 138.333q31 0 53 22t22 53-22 53-53 22-53-22-22-53 22-53 53-22zM415 192.333l45-35q7-5 2-14l-43-74q-4-7-13-4l-53 21q-21-15-36-21l-8-56q-2-9-10-9h-86q-8 0-10 9l-8 56q-19 8-36 21l-53-21q-9-3-13 4l-43 74q-5 9 2 14l45 35q-1 7-1 21t1 21l-45 35q-7 5-2 14l43 74q4 7 13 4l53-21q21 15 36 21l8 56q2 9 10 9h86q8 0 10-9l8-56q19-8 36-21l53 21q9 3 13-4l43-74q5-9-2-14l-45-35q1-7 1-21t-1-21z" />
<glyph unicode="&#xe2cd;" glyph-name="rollback" data-tags="settings_backup_restore" d="M256 405.333q80 0 136-56t56-136-56-136-136-56q-66 0-117 40l30 30q40-27 87-27 62 0 105.5 43.5t43.5 105.5-43.5 105.5-105.5 43.5-105.5-43.5-43.5-105.5h64l-86-85-85 85h64q0 80 56 136t136 56zM299 213.333q0-17-13-30t-30-13-30 13-13 30 13 30 30 13 30-13 13-30z" />
<glyph unicode="&#xe2e5;" glyph-name="role" data-tags="supervisor_account" d="M192 192.333q22 0 51-6-51-28-51-74v-48h-149v53q0 23 27.5 41t60.5 26 61 8zM352 170.333q37 0 77-16t40-42v-48h-234v48q0 26 40 42t77 16zM192 234.333q-26 0-45 19t-19 45 19 45 45 19 45-19 19-45-19-45-45-19zM352 213.333q-22 0-37.5 15.5t-15.5 37.5 15.5 38 37.5 16 37.5-16 15.5-38-15.5-37.5-37.5-15.5z" />
<glyph unicode="&#xe2e8;" glyph-name="swap" data-tags="swap_vertical_circle" d="M373 149.333h-53v85h-43v-85h-53l75-75zM139 277.333h53v-85h43v85h53l-75 75zM256 426.333q88 0 150.5-62.5t62.5-150.5-62.5-150.5-150.5-62.5-150.5 62.5-62.5 150.5 62.5 150.5 150.5 62.5z" />
<glyph unicode="&#xe2ed;" glyph-name="decline" data-tags="thumb_down" d="M405 405.333h86v-256h-86v256zM320 405.333q17 0 30-13t13-30v-213q0-17-13-30l-140-141-23 23q-9 9-9 22v7l21 98h-135q-17 0-30 12.5t-13 29.5l1 2h-1v41q0 8 3 16l65 150q10 26 39 26h192z" />
<glyph unicode="&#xe2ee;" glyph-name="approve" data-tags="thumb_up" d="M491 256.333l-1-2h1v-41q0-8-3-16l-65-150q-10-26-39-26h-192q-17 0-30 13t-13 30v213q0 17 13 30l140 141 23-23q9-9 9-22v-7l-21-98h135q17 0 30-12.5t13-29.5zM21 21.333v256h86v-256h-86z" />
<glyph unicode="&#xe2fe;" glyph-name="columns" data-tags="view_column" d="M341 362.333h107v-277h-107v277zM85 85.333v277h107v-277h-107zM213 85.333v277h107v-277h-107z" />
<glyph unicode="&#xe306;" glyph-name="visibility" data-tags="visibility" d="M256 277.333q26 0 45-19t19-45-19-45-45-19-45 19-19 45 19 45 45 19zM256 106.333q44 0 75.5 31.5t31.5 75.5-31.5 75.5-75.5 31.5-75.5-31.5-31.5-75.5 31.5-75.5 75.5-31.5zM256 373.333q79 0 143-44t92-116q-28-72-92-116t-143-44-143 44-92 116q28 72 92 116t143 44z" />
<glyph unicode="&#xe307;" glyph-name="visibility-off" data-tags="visibility_off" d="M253 277.333h3q26 0 45-19t19-45v-4zM161 260.333q-12-24-12-47 0-44 31.5-75.5t75.5-31.5q23 0 47 12l-33 33q-8-2-14-2-26 0-45 19t-19 45q0 6 2 14zM43 378.333l27 27 378-378-27-27q-5 5-31.5 31t-40.5 40q-43-18-93-18-79 0-143 44t-92 116q25 62 80 106-12 12-33.5 34t-24.5 25zM256 320.333q-20 0-39-8l-46 46q39 15 85 15 79 0 142.5-44t91.5-116q-24-59-73-101l-62 62q8 19 8 39 0 44-31.5 75.5t-75.5 31.5z" />
<glyph unicode="&#xe30c;" glyph-name="re-search" data-tags="youtube_searched_for" d="M363 170.333l106-106-31-32-107 107v16l-6 6q-38-33-90-33-38 0-71 19l32 31q19-8 39-8 40 0 68 28t28 68-28 68-68 28-68-28-28-68h74l-88-85-82 85h53q0 57 41 98t98 41q58 0 98.5-40.5t40.5-98.5q0-51-34-90l6-6h17z" />
<glyph unicode="&#xe30f;" glyph-name="help-wire" data-tags="help_outline" d="M256 341.333q35 0 60-25t25-60q0-27-32-55.5t-32-51.5h-42q0 23 10 39.5t22 24 22 18.5 10 25q0 17-13 29.5t-30 12.5-30-12.5-13-29.5h-42q0 35 25 60t60 25zM256 42.333q70 0 120.5 50.5t50.5 120.5-50.5 120.5-120.5 50.5-120.5-50.5-50.5-120.5 50.5-120.5 120.5-50.5zM256 426.333q88 0 150.5-62.5t62.5-150.5-62.5-150.5-150.5-62.5-150.5 62.5-62.5 150.5 62.5 150.5 150.5 62.5zM235 85.333v43h42v-43h-42z" />
<glyph unicode="&#xe317;" glyph-name="download" data-tags="play_for_work" d="M128 170.333h43q0-35 25-60t60-25 60 25 25 60h43q0-53-37.5-90.5t-90.5-37.5-90.5 37.5-37.5 90.5zM235 362.333h42v-119h75l-96-96-96 96h75v119z" />
<glyph unicode="&#xe800;" glyph-name="assign" data-tags="resize, shrink, collapse, contract" d="M438.512 343.221l-42.64 42.64-78.8-78.8-61.040 61.040-0.064-154.88 155.568 0.272-51.808 50.928 78.784 78.8zM137.232 143.205l-71.248-71.248 42.64-42.656 71.248 71.28 59.712-59.712 0.064 155.744-156.544 0.72 54.128-54.128z" />
<glyph unicode="&#xe801;" glyph-name="select-all" data-tags="checked, checkmark, tick, checkbox" d="M424 37.333h-48c-4.416 0-8 3.584-8 8s3.584 8 8 8h40v40c0 4.416 3.584 8 8 8 4.4 0 8-3.584 8-8v-48c0-4.416-3.6-8-8-8zM424 133.333c-4.416 0-8 3.584-8 8v48c0 4.416 3.584 8 8 8 4.4 0 8-3.584 8-8v-48c0-4.416-3.6-8-8-8zM424 229.333c-4.416 0-8 3.584-8 8v48c0 4.416 3.584 8 8 8 4.4 0 8-3.584 8-8v-48c0-4.416-3.6-8-8-8zM424 325.333c-4.416 0-8 3.584-8 8v40h-40c-4.416 0-8 3.584-8 8s3.584 8 8 8h48c4.4 0 8-3.584 8-8v-48c0-4.416-3.6-8-8-8zM234.656 132.485c-2.944-2.96-7.728-2.96-10.688 0l-16.032 16.032c-0.032 0.048-0.016 0.112-0.048 0.144l-51.008 51.392c-2.96 2.944-2.96 7.728 0 10.688l16.032 16.048c2.96 2.96 7.744 2.96 10.704 0l45.76-46.096 96.224 96.208c2.944 2.96 7.728 2.96 10.688 0l16.032-16.048c2.976-2.96 2.976-7.744 0-10.704l-117.664-117.664zM328 373.333h-48c-4.416 0-8 3.584-8 8s3.584 8 8 8h48c4.4 0 8-3.584 8-8s-3.6-8-8-8zM232 373.333h-48c-4.416 0-8 3.584-8 8s3.584 8 8 8h48c4.4 0 8-3.584 8-8s-3.6-8-8-8zM136 37.333h-48c-4.416 0-8 3.584-8 8v48c0 4.416 3.584 8 8 8s8-3.584 8-8v-40h40c4.416 0 8-3.584 8-8s-3.584-8-8-8zM136 373.333h-40v-40c0-4.416-3.584-8-8-8s-8 3.584-8 8v48c0 4.416 3.584 8 8 8h48c4.416 0 8-3.584 8-8s-3.584-8-8-8zM88 293.333c4.416 0 8-3.584 8-8v-48c0-4.416-3.584-8-8-8s-8 3.584-8 8v48c0 4.416 3.584 8 8 8zM88 197.333c4.416 0 8-3.584 8-8v-48c0-4.416-3.584-8-8-8s-8 3.584-8 8v48c0 4.416 3.584 8 8 8zM184 53.333h48c4.4 0 8-3.584 8-8s-3.6-8-8-8h-48c-4.416 0-8 3.584-8 8s3.584 8 8 8zM280 53.333h48c4.4 0 8-3.584 8-8s-3.6-8-8-8h-48c-4.416 0-8 3.584-8 8s3.584 8 8 8z" />
<glyph unicode="&#xe802;" glyph-name="clear-selection" data-tags="error, cancel, close, partially checked" d="M424 37.333h-48c-4.416 0-8 3.584-8 8s3.584 8 8 8h40v40c0 4.416 3.584 8 8 8 4.4 0 8-3.584 8-8v-48c0-4.416-3.6-8-8-8zM424 133.333c-4.416 0-8 3.584-8 8v48c0 4.416 3.584 8 8 8 4.4 0 8-3.584 8-8v-48c0-4.416-3.6-8-8-8zM424 229.333c-4.416 0-8 3.584-8 8v48c0 4.416 3.584 8 8 8 4.4 0 8-3.584 8-8v-48c0-4.416-3.6-8-8-8zM424 325.333c-4.416 0-8 3.584-8 8v40h-40c-4.416 0-8 3.584-8 8s3.584 8 8 8h48c4.4 0 8-3.584 8-8v-48c0-4.416-3.6-8-8-8zM328 37.333h-48c-4.416 0-8 3.584-8 8s3.584 8 8 8h48c4.4 0 8-3.584 8-8s-3.6-8-8-8zM328 373.333h-48c-4.416 0-8 3.584-8 8s3.584 8 8 8h48c4.4 0 8-3.584 8-8s-3.6-8-8-8zM232 373.333h-48c-4.416 0-8 3.584-8 8s3.584 8 8 8h48c4.4 0 8-3.584 8-8s-3.6-8-8-8zM136 37.333h-48c-4.416 0-8 3.584-8 8v48c0 4.416 3.584 8 8 8s8-3.584 8-8v-40h40c4.416 0 8-3.584 8-8s-3.584-8-8-8zM136 373.333h-40v-40c0-4.416-3.584-8-8-8s-8 3.584-8 8v48c0 4.416 3.584 8 8 8h48c4.416 0 8-3.584 8-8s-3.584-8-8-8zM88 293.333c4.416 0 8-3.584 8-8v-48c0-4.416-3.584-8-8-8s-8 3.584-8 8v48c0 4.416 3.584 8 8 8zM88 197.333c4.416 0 8-3.584 8-8v-48c0-4.416-3.584-8-8-8s-8 3.584-8 8v48c0 4.416 3.584 8 8 8zM331.776 153.765l-16.224-16.224c-2.976-2.992-7.808-2.992-10.8 0l-45.92 45.92-45.92-45.92c-2.992-2.992-7.808-2.992-10.8 0l-16.208 16.224c-2.992 2.992-2.992 7.808 0 10.8l45.936 45.92-45.936 45.92c-2.992 2.976-2.992 7.808 0 10.8l16.208 16.208c2.992 2.992 7.808 2.992 10.8 0l45.92-45.92 45.92 45.92c2.992 2.992 7.824 2.992 10.8 0l16.224-16.208c2.976-2.992 2.976-7.824 0-10.8l-45.936-45.92 45.936-45.92c2.976-2.976 2.976-7.808 0-10.8zM184 53.333h48c4.4 0 8-3.584 8-8s-3.6-8-8-8h-48c-4.416 0-8 3.584-8 8s3.584 8 8 8z" />
<glyph unicode="&#xe803;" glyph-name="lock-open" data-tags="lock-open" d="M404.48 264.533h-46.080v61.44c0 74.163-34.176 117.76-102.4 117.76-68.25 0-102.4-43.597-102.4-117.76v-10.24h51.2v20.505c0 36.992 20.403 56.294 51.2 56.294s51.2-19.303 51.2-56.294v-71.706h-204.8c-14.157 0-25.6-16.537-25.6-30.694v-199.706c0-14.055 10.957-29.159 24.346-33.459l30.643-9.907c13.415-4.275 35.891-7.834 49.971-7.834h148.48c14.055 0 36.557 3.558 49.945 7.859l30.618 9.907c13.414 4.275 24.397 19.379 24.397 33.433v199.706c0 14.157-16.589 30.695-30.72 30.695z" />
<glyph unicode="&#xe804;" glyph-name="lock" data-tags="lock" d="M404.48 264.533h-46.080v61.44c0 74.163-34.176 117.76-102.4 117.76-68.25 0-102.4-43.597-102.4-117.76v-61.44h-51.2c-14.157 0-25.6-16.537-25.6-30.694v-199.706c0-14.055 10.957-29.159 24.346-33.459l30.643-9.907c13.415-4.275 35.891-7.834 49.971-7.834h148.48c14.055 0 36.557 3.558 49.945 7.859l30.618 9.907c13.414 4.275 24.397 19.379 24.397 33.433v199.706c0 14.157-16.589 30.695-30.72 30.695zM307.2 264.533h-102.4v71.706c0 36.992 20.403 56.294 51.2 56.294s51.2-19.303 51.2-56.294v-71.706z" />
<glyph unicode="&#xe805;" glyph-name="filter" data-tags="filter" horiz-adv-x="403" d="M400.857 385.048q4.857-11.714-4-20l-140.857-140.857v-212q0-12-11.143-16.857-3.714-1.428-7.143-1.428-7.714 0-12.857 5.428l-73.143 73.143q-5.428 5.428-5.428 12.857v138.857l-140.857 140.857q-8.857 8.286-4 20 4.857 11.143 16.857 11.143h365.714q12 0 16.857-11.143z" />
<glyph unicode="&#xe806;" glyph-name="columns-alt" data-tags="menu, list, options, lines, hamburger" d="M406.856 405.334v-383.999h-82.285v383.999zM297.143 405.334v-383.999h-82.285v383.999zM187.427 405.334v-383.999h-82.285v383.999z" />
<glyph unicode="&#xe900;" glyph-name="light-bulb" data-tags="light-bulb" d="M183.962-4.403c20.198-13.056 43.546-21.888 72.038-21.197 28.442-0.691 51.84 8.141 72.038 21.197l-0.435 55.603h-143.207l-0.435-55.603zM325.043 76.8c0 111.539 118.528 149.709 109.645 260.813-5.581 70.093-53.069 148.736-178.688 148.736s-173.107-78.643-178.714-148.761c-8.883-111.079 109.671-149.248 109.671-260.787h138.087zM128 332.8c5.299 66.509 54.093 102.4 128 102.4 73.882 0 119.142-35.097 124.442-101.606 2.893-36.455-18.048-60.749-46.31-100.506-20.839-29.338-41.037-59.981-52.531-105.088h-51.2c-11.494 45.107-31.693 75.75-52.557 105.114-28.237 39.731-52.761 63.232-49.843 99.686z" />
<glyph unicode="&#xe901;" glyph-name="archived" data-tags="uninstall" d="M487.911 207.411l-81.178 202.931c-5.99 15.027-20.531 24.858-36.711 24.858h-228.045c-16.179 0-30.72-9.831-36.71-24.858l-81.177-202.931c-7.373-18.457-9.549-38.579-6.297-58.163l15.104-90.599c3.175-19.072 19.661-33.050 38.989-33.050h368.205c19.328 0 35.815 13.978 38.989 33.050l15.104 90.599c3.303 19.584 1.127 39.705-6.272 58.163zM141.312 363.879l41.959 28.979 73.421-51.481 73.421 51.481 41.959-28.979-73.447-52.045 74.957-52.736-41.959-29.977-74.931 53.145-74.931-53.145-41.959 29.977 74.957 52.736-73.447 52.045zM434.151 96.128c-1.843-11.161-11.495-19.328-22.81-19.328h-310.682c-11.315 0-20.966 8.166-22.809 19.328l-9.344 56.141c-2.381 14.106 8.499 26.931 22.809 26.931h329.395c14.285 0 25.165-12.825 22.81-26.931l-9.37-56.141z" />
<glyph unicode="&#xe902;" glyph-name="dbl-arrow-left" data-tags="dbl-arrow-left" d="M411.733 322.134l-98.133-98.134 98.134-98.134-29.866-29.866-128 128 128 128 29.866-29.866zM258.134 322.134l-98.133-98.134 98.133-98.134-29.867-29.866-128 128 128 128 29.867-29.866z" />
<glyph unicode="&#xe903;" glyph-name="dbl-arrow-right" data-tags="dbl-arrow-right" d="M100.266 125.866l98.133 98.134-98.133 98.134 29.867 29.866 128-128-128-128-29.867 29.866zM253.867 125.866l98.133 98.134-98.133 98.134 29.867 29.866 128-128-128-128-29.867 29.866z" />
<glyph unicode="&#xe904;" glyph-name="right-arrow-solid-1" data-tags="symbol-right-arrow-filled" d="M405.334 375.466c-40.534 40.534-89.6 61.866-149.334 61.866s-108.8-21.333-151.466-61.866c-40.534-42.666-61.867-93.866-61.867-151.466 0-59.733 21.334-108.8 64-149.333 40.534-42.666 91.734-64 149.333-64s108.8 21.334 151.466 64c40.534 40.534 61.866 91.733 61.866 149.333s-21.334 108.8-64 151.466zM213.333 89.6l-29.867 29.866 98.134 98.134-98.133 98.134 29.867 29.866 128-128-128-128z" />
<glyph unicode="&#xe905;" glyph-name="left-arrow-solid-1" data-tags="symbol-left-arrow-filled" d="M106.666 72.534c40.533-40.534 91.734-61.866 149.334-61.866s108.8 21.334 151.466 61.866c40.534 42.666 61.866 91.733 61.866 151.466s-21.334 108.8-64 149.333c-40.534 42.667-91.733 64-149.333 64s-108.8-21.333-151.466-64c-40.533-40.534-61.867-91.733-61.867-149.333s21.334-108.8 64-151.466zM298.666 358.4l29.866-29.866-98.133-98.133 98.133-98.133-29.866-29.866-128 128 128 128z" />
<glyph unicode="&#xe906;" glyph-name="extensions" data-tags="icon-extensions" d="M149.333 352c0-29.455-23.878-53.334-53.334-53.334s-53.334 23.878-53.334 53.334c0 29.455 23.878 53.334 53.334 53.334s53.334-23.878 53.334-53.334zM469.334 394.666c0-41.238-33.43-74.666-74.666-74.666s-74.666 33.429-74.666 74.666c0 41.238 33.43 74.666 74.666 74.666s74.666-33.429 74.666-74.666zM469.334 74.666c0-53.019-42.981-96-96-96s-96 42.981-96 96c0 53.019 42.981 96 96 96s96-42.981 96-96zM106.447 362.676l277.56-277.56-22.627-22.627-277.56 277.56 22.627 22.627zM384.757 405.88l22.627-22.627-170.458-170.458-22.627 22.627 170.458 170.458z" />
<glyph unicode="&#xe907;" glyph-name="truck" data-tags="icon-truck" d="M270.933 407.466c-81.067 0-164.267 0-245.333 0-19.2 0-23.466-6.4-23.466-23.466 0-89.6 0-179.2 0-270.933 0-12.8 6.4-19.2 19.2-19.2 8.534 0 19.2 0 27.733 0s10.666 2.134 12.8 10.666c17.067 53.334 78.934 68.267 117.333 27.733 8.534-10.666 14.934-23.466 21.334-36.267 21.334 0 44.8 0 68.267 0 21.334 0 25.6 4.267 25.6 25.6 0 87.466 0 177.067 0 264.534 0 17.067-4.267 21.334-23.466 21.334zM503.466 241.066c-19.2 27.733-40.534 53.333-59.733 81.066-4.267 4.267-12.8 8.534-19.2 8.534-27.733 0-57.6 0-85.334 0-17.067 0-23.466-6.4-23.466-23.466 0-64 0-125.867 0-189.867 0-12.8 6.4-19.2 19.2-21.334 2.134 4.267 2.134 6.4 2.134 10.666 8.534 29.866 36.267 49.067 66.134 49.067s57.6-21.334 66.134-49.067c2.134-8.534 6.4-10.666 12.8-8.534 2.134 0 4.267 0 6.4 0 12.8 0 19.2 6.4 19.2 19.2 0 32 0 66.133 0 98.133 2.134 6.4 0 17.066-4.267 25.6zM375.466 213.334c0 25.6 0 51.2 0 76.8 17.067 0 32 0 49.067 0 2.134 0 4.267-2.134 6.4-4.267 14.933-21.334 32-42.666 46.933-64 2.134-2.134 2.134-6.4 4.267-10.666-38.4 2.134-72.534 2.134-106.666 2.134zM128 130.134c-23.466 0-44.8-21.334-44.8-44.8 0-25.6 19.2-44.8 44.8-44.8s44.8 19.2 44.8 44.8c0 23.466-19.2 44.8-44.8 44.8zM405.334 130.134c-25.6 0-44.8-19.2-44.8-44.8s19.2-44.8 44.8-44.8c25.6 0 44.8 19.2 46.933 42.666-2.134 23.466-23.466 44.8-46.933 46.933z" />
<glyph unicode="&#xe908;" glyph-name="plus-solid-2" data-tags="plus-alt, add" d="M256 480c-141.376 0-256-114.624-256-256s114.624-256 256-256 256 114.624 256 256-114.624 256-256 256zM384 192h-96v-96h-64v96h-96v64h96v96h64v-96h96v-64z" />
<glyph unicode="&#xf011;" glyph-name="sign-out" data-tags="power-off" d="M438.857 219.429q0-44.572-17.428-85.143t-46.857-70-70-46.857-85.143-17.428-85.143 17.428-70 46.857-46.857 70-17.428 85.143q0 52 23 98t64.715 77.143q12.285 9.143 27.285 7.143t23.857-14.286q9.143-12 7-27t-14.143-24.143q-28-21.143-43.285-51.714t-15.285-65.143q0-29.714 11.572-56.714t31.285-46.714 46.715-31.286 56.714-11.572 56.714 11.572 46.714 31.286 31.286 46.714 11.572 56.714q0 34.572-15.286 65.143t-43.286 51.715q-12 9.143-14.143 24.143t7 27q8.857 12.286 24 14.286t27.143-7.143q41.714-31.143 64.714-77.143t23-98zM256 438.857v-182.857q0-14.857-10.857-25.714t-25.715-10.857-25.714 10.857-10.857 25.714v182.857q0 14.857 10.857 25.715t25.714 10.857 25.714-10.857 10.857-25.715z" />
<glyph unicode="&#xf02c;" glyph-name="tags" data-tags="tags" horiz-adv-x="549" d="M128 347.429q0 15.143-10.715 25.857t-25.857 10.715-25.857-10.715-10.715-25.857 10.715-25.857 25.857-10.714 25.857 10.714 10.715 25.857zM432.857 182.857q0-15.143-10.572-25.714l-140.286-140.571q-11.143-10.572-26-10.572-15.143 0-25.714 10.572l-204.286 204.571q-10.857 10.572-18.428 28.857t-7.572 33.428v118.857q0 14.857 10.857 25.715t25.715 10.857h118.857q15.143 0 33.428-7.572t29.143-18.428l204.285-204q10.572-11.143 10.572-26zM542.572 182.857q0-15.143-10.572-25.714l-140.286-140.571q-11.143-10.572-26-10.572-10.286 0-16.857 4t-15.143 12.857l134.286 134.286q10.572 10.572 10.572 25.714 0 14.857-10.572 26l-204.286 204q-10.857 10.857-29.143 18.428t-33.429 7.572h64q15.143 0 33.428-7.572t29.143-18.428l204.286-204q10.572-11.143 10.572-26z" />
<glyph unicode="&#xf02d;" glyph-name="book" data-tags="book" horiz-adv-x="476" d="M468.286 338.857q11.428-16.285 5.143-36.857l-78.572-258.857q-5.428-18.286-21.857-30.714t-35-12.428h-263.714q-22 0-42.428 15.286t-28.428 37.572q-6.857 19.143-0.571 36.286 0 1.143 0.857 7.714t1.143 10.572q0.285 2.286-0.857 6.143t-0.857 5.572q0.571 3.143 2.285 6t4.715 6.714 4.714 6.714q6.572 10.857 12.857 26.143t8.572 26.143q0.857 2.857 0.143 8.572t-0.143 8q0.857 3.143 4.857 8t4.857 6.572q6 10.286 12 26.286t7.143 25.714q0.285 2.571-0.715 9.143t0.143 8q1.143 3.714 6.285 8.714t6.285 6.429q5.428 7.428 12.143 24.143t7.857 27.572q0.285 2.286-0.857 7.286t-0.572 7.571q0.572 2.286 2.572 5.143t5.143 6.572 4.857 6q2.285 3.428 4.715 8.714t4.285 10 4.572 10.286 5.572 9.143 7.571 6.714 10.286 3.286 13.572-1.571l-0.286-0.857q10.857 2.572 14.572 2.572h217.428q21.143 0 32.572-16t5.143-37.143l-78.286-258.857q-10.286-34-20.428-43.857t-36.714-9.857h-248.286q-7.715 0-10.857-4.286-3.143-4.572-0.285-12.286 6.857-20 41.143-20h263.714q8.286 0 16 4.428t10 11.857l85.714 282q2 6.286 1.428 16.285 10.857-4.285 16.857-12.285zM164.286 338.286q-1.143-3.714 0.571-6.428t5.714-2.714h173.714q3.714 0 7.286 2.714t4.714 6.428l6 18.285q1.143 3.715-0.572 6.429t-5.714 2.714h-173.714q-3.714 0-7.286-2.714t-4.714-6.429zM140.571 265.143q-1.143-3.714 0.571-6.428t5.714-2.714h173.714q3.714 0 7.286 2.714t4.714 6.428l6 18.286q1.143 3.714-0.572 6.428t-5.714 2.714h-173.714q-3.714 0-7.286-2.714t-4.714-6.428z" />
<glyph unicode="&#xf073;" glyph-name="calendar" data-tags="calendar" horiz-adv-x="476" d="M36.572 0h82.285v82.286h-82.285v-82.286zM137.143 0h91.429v82.286h-91.428v-82.286zM36.572 100.572h82.285v91.428h-82.285v-91.428zM137.143 100.572h91.429v91.428h-91.428v-91.428zM36.572 210.286h82.285v82.286h-82.285v-82.286zM246.857 0h91.429v82.286h-91.428v-82.286zM137.143 210.286h91.429v82.286h-91.428v-82.286zM356.572 0h82.286v82.286h-82.286v-82.286zM246.857 100.572h91.429v91.428h-91.428v-91.428zM146.286 347.429v82.285q0 3.715-2.714 6.429t-6.428 2.714h-18.285q-3.715 0-6.428-2.714t-2.715-6.429v-82.285q0-3.714 2.715-6.428t6.428-2.714h18.285q3.714 0 6.428 2.714t2.714 6.428zM356.572 100.572h82.286v91.428h-82.286v-91.428zM246.857 210.286h91.429v82.286h-91.428v-82.286zM356.572 210.286h82.286v82.286h-82.286v-82.286zM365.714 347.429v82.285q0 3.715-2.714 6.429t-6.428 2.714h-18.286q-3.714 0-6.428-2.714t-2.714-6.429v-82.285q0-3.714 2.714-6.428t6.428-2.714h18.286q3.714 0 6.428 2.714t2.714 6.428zM475.428 365.714v-365.714q0-14.857-10.857-25.714t-25.714-10.857h-402.286q-14.857 0-25.715 10.857t-10.857 25.714v365.714q0 14.857 10.857 25.714t25.715 10.857h36.572v27.428q0 18.857 13.428 32.285t32.285 13.429h18.285q18.857 0 32.285-13.429t13.428-32.285v-27.428h109.714v27.428q0 18.857 13.428 32.285t32.286 13.429h18.286q18.857 0 32.286-13.429t13.428-32.285v-27.428h36.572q14.857 0 25.714-10.857t10.857-25.714z" />
<glyph unicode="&#xf100;" glyph-name="dbl-chevron-left" data-tags="angle-double-left" horiz-adv-x="293" d="M179.143 82.286q0-3.714-2.857-6.572l-14.286-14.286q-2.857-2.857-6.572-2.857t-6.572 2.857l-133.143 133.143q-2.857 2.857-2.857 6.572t2.857 6.572l133.143 133.143q2.857 2.857 6.572 2.857t6.572-2.857l14.286-14.286q2.857-2.857 2.857-6.571t-2.857-6.572l-112.285-112.286 112.285-112.286q2.857-2.857 2.857-6.572zM288.857 82.286q0-3.714-2.857-6.572l-14.286-14.286q-2.857-2.857-6.572-2.857t-6.572 2.857l-133.143 133.143q-2.857 2.857-2.857 6.572t2.857 6.572l133.143 133.143q2.857 2.857 6.572 2.857t6.572-2.857l14.286-14.286q2.857-2.857 2.857-6.571t-2.857-6.572l-112.286-112.286 112.286-112.286q2.857-2.857 2.857-6.572z" />
<glyph unicode="&#xf101;" glyph-name="dbl-chevron-right" data-tags="angle-double-right" horiz-adv-x="293" d="M170 201.143q0-3.714-2.857-6.572l-133.143-133.143q-2.857-2.857-6.572-2.857t-6.572 2.857l-14.286 14.286q-2.857 2.857-2.857 6.572t2.857 6.572l112.285 112.286-112.285 112.286q-2.857 2.857-2.857 6.572t2.857 6.572l14.285 14.286q2.857 2.857 6.572 2.857t6.572-2.857l133.143-133.143q2.857-2.857 2.857-6.572zM279.714 201.143q0-3.714-2.857-6.572l-133.143-133.143q-2.857-2.857-6.571-2.857t-6.572 2.857l-14.285 14.286q-2.857 2.857-2.857 6.572t2.857 6.572l112.285 112.286-112.285 112.286q-2.857 2.857-2.857 6.572t2.857 6.572l14.285 14.286q2.857 2.857 6.572 2.857t6.572-2.857l133.143-133.143q2.857-2.857 2.857-6.572z" />
<glyph unicode="&#xf14c;" glyph-name="launch-2" data-tags="external-link-square" horiz-adv-x="439" d="M365.714 210.286v137.143q0 7.428-5.428 12.857t-12.857 5.428h-137.143q-12 0-16.857-11.143-4.857-11.715 4-20l41.143-41.143-152.571-152.571q-5.428-5.428-5.428-12.857t5.428-12.857l29.143-29.143q5.428-5.428 12.857-5.428t12.857 5.428l152.571 152.571 41.143-41.143q5.143-5.428 12.857-5.428 3.428 0 7.143 1.428 11.143 4.857 11.143 16.857zM438.857 356.572v-274.286q0-34-24.143-58.143t-58.143-24.143h-274.286q-34 0-58.143 24.143t-24.143 58.143v274.286q0 34 24.143 58.143t58.143 24.143h274.286q34 0 58.143-24.143t24.143-58.143z" />
<glyph unicode="&#xf155;" glyph-name="dollar" data-tags="dollar, usd" horiz-adv-x="293" d="M279.428 136.857q0-43.714-28.428-75.286t-73.857-39v-50q0-4-2.571-6.572t-6.572-2.571h-38.572q-3.715 0-6.428 2.714t-2.715 6.429v50q-18.857 2.572-36.428 8.857t-29 12.714-21.143 13.714-13.285 10.714-5 5.143q-4.857 6-0.572 11.714l29.428 38.572q2 2.857 6.572 3.428 4.285 0.572 6.857-2.572l0.572-0.572q32.285-28.286 69.428-35.714 10.572-2.286 21.143-2.286 23.143 0 40.714 12.286t17.572 34.857q0 8-4.286 15.143t-9.572 12-16.714 10.714-18.857 9.143-22.857 9.286q-11.143 4.572-17.572 7.143t-17.572 7.572-17.857 8.857-16.143 10.143-15.285 12.143-12.428 14-10.143 16.572-6 19-2.428 22.286q0 39.428 28 69.143t72.857 38.286v51.428q0 3.715 2.715 6.428t6.429 2.715h38.572q4 0 6.572-2.572t2.571-6.572v-50.285q16.285-1.715 31.571-6.572t24.857-9.572 18.143-10.714 11.143-8.286 4.286-4q4.857-5.143 1.428-10.857l-23.143-41.715q-2.286-4.286-6.571-4.571-4-0.857-7.714 2-0.857 0.857-4.143 3.428t-11.143 7.572-16.714 9.143-21.286 7.428-24.428 3.286q-27.143 0-44.285-12.286t-17.143-31.714q0-7.428 2.428-13.714t8.428-11.857 11.285-9.428 16-8.857 17.286-7.714 20-7.857q15.143-5.714 23.143-9t21.715-10 21.572-12.143 17.714-14.286 15.143-18.143 9-21.857 3.714-26.857z" />
<glyph unicode="&#xf1b2;" glyph-name="cube" data-tags="cube" horiz-adv-x="475" d="M256 10l182.857 99.714v181.714l-182.857-66.572v-214.857zM237.714 257.143l199.429 72.572-199.429 72.571-199.429-72.571zM475.428 329.143v-219.429q0-10-5.143-18.572t-14-13.428l-201.143-109.714q-8-4.571-17.429-4.571t-17.428 4.572l-201.143 109.714q-8.857 4.857-14 13.428t-5.143 18.572v219.428q0 11.429 6.572 20.857t17.428 13.428l201.143 73.143q6.286 2.285 12.571 2.285t12.572-2.285l201.143-73.143q10.857-4 17.428-13.428t6.572-20.857z" />
</font>
</defs>
</svg>
